<mxfile host="app.diagrams.net" modified="2020-12-21T13:20:11.731Z" agent="5.0 (Macintosh; Intel Mac OS X 10_15_7) AppleWebKit/537.36 (KHTML, like Gecko) Chrome/87.0.4280.88 Safari/537.36" etag="DFS04FmSqijZLRxKhtVc" version="14.1.1" type="github">
  <diagram id="QkHZuWdcmFSUTzUoueu6" name="Page-1">
    <mxGraphModel dx="946" dy="646" grid="1" gridSize="10" guides="1" tooltips="1" connect="1" arrows="1" fold="1" page="1" pageScale="1" pageWidth="827" pageHeight="1169" math="0" shadow="0">
      <root>
        <mxCell id="0" />
        <mxCell id="1" parent="0" />
        <mxCell id="I6BuJZISgM51fVzHt2Yi-1" value="User" style="shape=table;startSize=40;container=1;collapsible=1;childLayout=tableLayout;fixedRows=1;rowLines=0;fontStyle=1;align=center;resizeLast=1;" vertex="1" parent="1">
          <mxGeometry x="80" y="40" width="180" height="240" as="geometry">
            <mxRectangle x="80" y="40" width="60" height="30" as="alternateBounds" />
          </mxGeometry>
        </mxCell>
        <mxCell id="I6BuJZISgM51fVzHt2Yi-2" value="" style="shape=partialRectangle;collapsible=0;dropTarget=0;pointerEvents=0;fillColor=none;top=0;left=0;bottom=1;right=0;points=[[0,0.5],[1,0.5]];portConstraint=eastwest;" vertex="1" parent="I6BuJZISgM51fVzHt2Yi-1">
          <mxGeometry y="40" width="180" height="30" as="geometry" />
        </mxCell>
        <mxCell id="I6BuJZISgM51fVzHt2Yi-3" value="PK" style="shape=partialRectangle;connectable=0;fillColor=none;top=0;left=0;bottom=0;right=0;fontStyle=1;overflow=hidden;" vertex="1" parent="I6BuJZISgM51fVzHt2Yi-2">
          <mxGeometry width="30" height="30" as="geometry" />
        </mxCell>
        <mxCell id="I6BuJZISgM51fVzHt2Yi-4" value="UniqueID" style="shape=partialRectangle;connectable=0;fillColor=none;top=0;left=0;bottom=0;right=0;align=left;spacingLeft=6;fontStyle=5;overflow=hidden;" vertex="1" parent="I6BuJZISgM51fVzHt2Yi-2">
          <mxGeometry x="30" width="150" height="30" as="geometry" />
        </mxCell>
        <mxCell id="I6BuJZISgM51fVzHt2Yi-5" value="" style="shape=partialRectangle;collapsible=0;dropTarget=0;pointerEvents=0;fillColor=none;top=0;left=0;bottom=0;right=0;points=[[0,0.5],[1,0.5]];portConstraint=eastwest;" vertex="1" parent="I6BuJZISgM51fVzHt2Yi-1">
          <mxGeometry y="70" width="180" height="30" as="geometry" />
        </mxCell>
        <mxCell id="I6BuJZISgM51fVzHt2Yi-6" value="" style="shape=partialRectangle;connectable=0;fillColor=none;top=0;left=0;bottom=0;right=0;editable=1;overflow=hidden;" vertex="1" parent="I6BuJZISgM51fVzHt2Yi-5">
          <mxGeometry width="30" height="30" as="geometry" />
        </mxCell>
        <mxCell id="I6BuJZISgM51fVzHt2Yi-7" value="氏名" style="shape=partialRectangle;connectable=0;fillColor=none;top=0;left=0;bottom=0;right=0;align=left;spacingLeft=6;overflow=hidden;" vertex="1" parent="I6BuJZISgM51fVzHt2Yi-5">
          <mxGeometry x="30" width="150" height="30" as="geometry" />
        </mxCell>
        <mxCell id="I6BuJZISgM51fVzHt2Yi-8" value="" style="shape=partialRectangle;collapsible=0;dropTarget=0;pointerEvents=0;fillColor=none;top=0;left=0;bottom=0;right=0;points=[[0,0.5],[1,0.5]];portConstraint=eastwest;" vertex="1" parent="I6BuJZISgM51fVzHt2Yi-1">
          <mxGeometry y="100" width="180" height="30" as="geometry" />
        </mxCell>
        <mxCell id="I6BuJZISgM51fVzHt2Yi-9" value="" style="shape=partialRectangle;connectable=0;fillColor=none;top=0;left=0;bottom=0;right=0;editable=1;overflow=hidden;" vertex="1" parent="I6BuJZISgM51fVzHt2Yi-8">
          <mxGeometry width="30" height="30" as="geometry" />
        </mxCell>
        <mxCell id="I6BuJZISgM51fVzHt2Yi-10" value="住所" style="shape=partialRectangle;connectable=0;fillColor=none;top=0;left=0;bottom=0;right=0;align=left;spacingLeft=6;overflow=hidden;" vertex="1" parent="I6BuJZISgM51fVzHt2Yi-8">
          <mxGeometry x="30" width="150" height="30" as="geometry" />
        </mxCell>
        <mxCell id="I6BuJZISgM51fVzHt2Yi-11" value="" style="shape=partialRectangle;collapsible=0;dropTarget=0;pointerEvents=0;fillColor=none;top=0;left=0;bottom=0;right=0;points=[[0,0.5],[1,0.5]];portConstraint=eastwest;" vertex="1" parent="I6BuJZISgM51fVzHt2Yi-1">
          <mxGeometry y="130" width="180" height="30" as="geometry" />
        </mxCell>
        <mxCell id="I6BuJZISgM51fVzHt2Yi-12" value="" style="shape=partialRectangle;connectable=0;fillColor=none;top=0;left=0;bottom=0;right=0;editable=1;overflow=hidden;" vertex="1" parent="I6BuJZISgM51fVzHt2Yi-11">
          <mxGeometry width="30" height="30" as="geometry" />
        </mxCell>
        <mxCell id="I6BuJZISgM51fVzHt2Yi-13" value="生年月日" style="shape=partialRectangle;connectable=0;fillColor=none;top=0;left=0;bottom=0;right=0;align=left;spacingLeft=6;overflow=hidden;" vertex="1" parent="I6BuJZISgM51fVzHt2Yi-11">
          <mxGeometry x="30" width="150" height="30" as="geometry" />
        </mxCell>
        <mxCell id="I6BuJZISgM51fVzHt2Yi-14" value="会員" style="shape=table;startSize=30;container=1;collapsible=1;childLayout=tableLayout;fixedRows=1;rowLines=0;fontStyle=1;align=center;resizeLast=1;" vertex="1" parent="1">
          <mxGeometry x="340" y="80" width="180" height="160" as="geometry" />
        </mxCell>
        <mxCell id="I6BuJZISgM51fVzHt2Yi-15" value="" style="shape=partialRectangle;collapsible=0;dropTarget=0;pointerEvents=0;fillColor=none;top=0;left=0;bottom=1;right=0;points=[[0,0.5],[1,0.5]];portConstraint=eastwest;" vertex="1" parent="I6BuJZISgM51fVzHt2Yi-14">
          <mxGeometry y="30" width="180" height="30" as="geometry" />
        </mxCell>
        <mxCell id="I6BuJZISgM51fVzHt2Yi-16" value="PK" style="shape=partialRectangle;connectable=0;fillColor=none;top=0;left=0;bottom=0;right=0;fontStyle=1;overflow=hidden;" vertex="1" parent="I6BuJZISgM51fVzHt2Yi-15">
          <mxGeometry width="30" height="30" as="geometry" />
        </mxCell>
        <mxCell id="I6BuJZISgM51fVzHt2Yi-17" value="UniqueID" style="shape=partialRectangle;connectable=0;fillColor=none;top=0;left=0;bottom=0;right=0;align=left;spacingLeft=6;fontStyle=5;overflow=hidden;" vertex="1" parent="I6BuJZISgM51fVzHt2Yi-15">
          <mxGeometry x="30" width="150" height="30" as="geometry" />
        </mxCell>
        <mxCell id="I6BuJZISgM51fVzHt2Yi-18" value="" style="shape=partialRectangle;collapsible=0;dropTarget=0;pointerEvents=0;fillColor=none;top=0;left=0;bottom=0;right=0;points=[[0,0.5],[1,0.5]];portConstraint=eastwest;" vertex="1" parent="I6BuJZISgM51fVzHt2Yi-14">
          <mxGeometry y="60" width="180" height="30" as="geometry" />
        </mxCell>
        <mxCell id="I6BuJZISgM51fVzHt2Yi-19" value="" style="shape=partialRectangle;connectable=0;fillColor=none;top=0;left=0;bottom=0;right=0;editable=1;overflow=hidden;" vertex="1" parent="I6BuJZISgM51fVzHt2Yi-18">
          <mxGeometry width="30" height="30" as="geometry" />
        </mxCell>
        <mxCell id="I6BuJZISgM51fVzHt2Yi-20" value="自己紹介" style="shape=partialRectangle;connectable=0;fillColor=none;top=0;left=0;bottom=0;right=0;align=left;spacingLeft=6;overflow=hidden;" vertex="1" parent="I6BuJZISgM51fVzHt2Yi-18">
          <mxGeometry x="30" width="150" height="30" as="geometry" />
        </mxCell>
        <mxCell id="I6BuJZISgM51fVzHt2Yi-21" value="" style="shape=partialRectangle;collapsible=0;dropTarget=0;pointerEvents=0;fillColor=none;top=0;left=0;bottom=0;right=0;points=[[0,0.5],[1,0.5]];portConstraint=eastwest;" vertex="1" parent="I6BuJZISgM51fVzHt2Yi-14">
          <mxGeometry y="90" width="180" height="30" as="geometry" />
        </mxCell>
        <mxCell id="I6BuJZISgM51fVzHt2Yi-22" value="" style="shape=partialRectangle;connectable=0;fillColor=none;top=0;left=0;bottom=0;right=0;editable=1;overflow=hidden;" vertex="1" parent="I6BuJZISgM51fVzHt2Yi-21">
          <mxGeometry width="30" height="30" as="geometry" />
        </mxCell>
        <mxCell id="I6BuJZISgM51fVzHt2Yi-23" value="写真" style="shape=partialRectangle;connectable=0;fillColor=none;top=0;left=0;bottom=0;right=0;align=left;spacingLeft=6;overflow=hidden;" vertex="1" parent="I6BuJZISgM51fVzHt2Yi-21">
          <mxGeometry x="30" width="150" height="30" as="geometry" />
        </mxCell>
        <mxCell id="I6BuJZISgM51fVzHt2Yi-24" value="" style="shape=partialRectangle;collapsible=0;dropTarget=0;pointerEvents=0;fillColor=none;top=0;left=0;bottom=0;right=0;points=[[0,0.5],[1,0.5]];portConstraint=eastwest;" vertex="1" parent="I6BuJZISgM51fVzHt2Yi-14">
          <mxGeometry y="120" width="180" height="30" as="geometry" />
        </mxCell>
        <mxCell id="I6BuJZISgM51fVzHt2Yi-25" value="" style="shape=partialRectangle;connectable=0;fillColor=none;top=0;left=0;bottom=0;right=0;editable=1;overflow=hidden;" vertex="1" parent="I6BuJZISgM51fVzHt2Yi-24">
          <mxGeometry width="30" height="30" as="geometry" />
        </mxCell>
        <mxCell id="I6BuJZISgM51fVzHt2Yi-26" value="" style="shape=partialRectangle;connectable=0;fillColor=none;top=0;left=0;bottom=0;right=0;align=left;spacingLeft=6;overflow=hidden;" vertex="1" parent="I6BuJZISgM51fVzHt2Yi-24">
          <mxGeometry x="30" width="150" height="30" as="geometry" />
        </mxCell>
        <mxCell id="I6BuJZISgM51fVzHt2Yi-27" value="商品" style="shape=table;startSize=30;container=1;collapsible=1;childLayout=tableLayout;fixedRows=1;rowLines=0;fontStyle=1;align=center;resizeLast=1;" vertex="1" parent="1">
          <mxGeometry x="600" y="80" width="180" height="160" as="geometry" />
        </mxCell>
        <mxCell id="I6BuJZISgM51fVzHt2Yi-28" value="" style="shape=partialRectangle;collapsible=0;dropTarget=0;pointerEvents=0;fillColor=none;top=0;left=0;bottom=1;right=0;points=[[0,0.5],[1,0.5]];portConstraint=eastwest;" vertex="1" parent="I6BuJZISgM51fVzHt2Yi-27">
          <mxGeometry y="30" width="180" height="30" as="geometry" />
        </mxCell>
        <mxCell id="I6BuJZISgM51fVzHt2Yi-29" value="PK" style="shape=partialRectangle;connectable=0;fillColor=none;top=0;left=0;bottom=0;right=0;fontStyle=1;overflow=hidden;" vertex="1" parent="I6BuJZISgM51fVzHt2Yi-28">
          <mxGeometry width="30" height="30" as="geometry" />
        </mxCell>
        <mxCell id="I6BuJZISgM51fVzHt2Yi-30" value="UniqueID" style="shape=partialRectangle;connectable=0;fillColor=none;top=0;left=0;bottom=0;right=0;align=left;spacingLeft=6;fontStyle=5;overflow=hidden;" vertex="1" parent="I6BuJZISgM51fVzHt2Yi-28">
          <mxGeometry x="30" width="150" height="30" as="geometry" />
        </mxCell>
        <mxCell id="I6BuJZISgM51fVzHt2Yi-31" value="" style="shape=partialRectangle;collapsible=0;dropTarget=0;pointerEvents=0;fillColor=none;top=0;left=0;bottom=0;right=0;points=[[0,0.5],[1,0.5]];portConstraint=eastwest;" vertex="1" parent="I6BuJZISgM51fVzHt2Yi-27">
          <mxGeometry y="60" width="180" height="30" as="geometry" />
        </mxCell>
        <mxCell id="I6BuJZISgM51fVzHt2Yi-32" value="" style="shape=partialRectangle;connectable=0;fillColor=none;top=0;left=0;bottom=0;right=0;editable=1;overflow=hidden;" vertex="1" parent="I6BuJZISgM51fVzHt2Yi-31">
          <mxGeometry width="30" height="30" as="geometry" />
        </mxCell>
        <mxCell id="I6BuJZISgM51fVzHt2Yi-33" value="値段" style="shape=partialRectangle;connectable=0;fillColor=none;top=0;left=0;bottom=0;right=0;align=left;spacingLeft=6;overflow=hidden;" vertex="1" parent="I6BuJZISgM51fVzHt2Yi-31">
          <mxGeometry x="30" width="150" height="30" as="geometry" />
        </mxCell>
        <mxCell id="I6BuJZISgM51fVzHt2Yi-34" value="" style="shape=partialRectangle;collapsible=0;dropTarget=0;pointerEvents=0;fillColor=none;top=0;left=0;bottom=0;right=0;points=[[0,0.5],[1,0.5]];portConstraint=eastwest;" vertex="1" parent="I6BuJZISgM51fVzHt2Yi-27">
          <mxGeometry y="90" width="180" height="30" as="geometry" />
        </mxCell>
        <mxCell id="I6BuJZISgM51fVzHt2Yi-35" value="" style="shape=partialRectangle;connectable=0;fillColor=none;top=0;left=0;bottom=0;right=0;editable=1;overflow=hidden;" vertex="1" parent="I6BuJZISgM51fVzHt2Yi-34">
          <mxGeometry width="30" height="30" as="geometry" />
        </mxCell>
        <mxCell id="I6BuJZISgM51fVzHt2Yi-36" value="詳細情報" style="shape=partialRectangle;connectable=0;fillColor=none;top=0;left=0;bottom=0;right=0;align=left;spacingLeft=6;overflow=hidden;" vertex="1" parent="I6BuJZISgM51fVzHt2Yi-34">
          <mxGeometry x="30" width="150" height="30" as="geometry" />
        </mxCell>
        <mxCell id="I6BuJZISgM51fVzHt2Yi-37" value="" style="shape=partialRectangle;collapsible=0;dropTarget=0;pointerEvents=0;fillColor=none;top=0;left=0;bottom=0;right=0;points=[[0,0.5],[1,0.5]];portConstraint=eastwest;" vertex="1" parent="I6BuJZISgM51fVzHt2Yi-27">
          <mxGeometry y="120" width="180" height="30" as="geometry" />
        </mxCell>
        <mxCell id="I6BuJZISgM51fVzHt2Yi-38" value="" style="shape=partialRectangle;connectable=0;fillColor=none;top=0;left=0;bottom=0;right=0;editable=1;overflow=hidden;" vertex="1" parent="I6BuJZISgM51fVzHt2Yi-37">
          <mxGeometry width="30" height="30" as="geometry" />
        </mxCell>
        <mxCell id="I6BuJZISgM51fVzHt2Yi-39" value="" style="shape=partialRectangle;connectable=0;fillColor=none;top=0;left=0;bottom=0;right=0;align=left;spacingLeft=6;overflow=hidden;" vertex="1" parent="I6BuJZISgM51fVzHt2Yi-37">
          <mxGeometry x="30" width="150" height="30" as="geometry" />
        </mxCell>
        <mxCell id="I6BuJZISgM51fVzHt2Yi-70" value="登録日" style="text;html=1;align=center;verticalAlign=middle;resizable=0;points=[];autosize=1;" vertex="1" parent="1">
          <mxGeometry x="110" y="230" width="50" height="20" as="geometry" />
        </mxCell>
        <mxCell id="I6BuJZISgM51fVzHt2Yi-72" value="更新日" style="text;html=1;align=center;verticalAlign=middle;resizable=0;points=[];autosize=1;" vertex="1" parent="1">
          <mxGeometry x="110" y="260" width="50" height="20" as="geometry" />
        </mxCell>
        <mxCell id="I6BuJZISgM51fVzHt2Yi-73" value="id" style="text;html=1;align=center;verticalAlign=middle;resizable=0;points=[];autosize=1;" vertex="1" parent="1">
          <mxGeometry x="120" y="200" width="20" height="20" as="geometry" />
        </mxCell>
      </root>
    </mxGraphModel>
  </diagram>
</mxfile>
